<?xml version="1.0" encoding="UTF-8"?><svg id="Layer_1" xmlns="http://www.w3.org/2000/svg" viewBox="0 0 28.49 24"><defs><style>.cls-1{fill:#fff;stroke-width:0px;}</style></defs><path class="cls-1" d="m24.72,0H3.76c-1,0-1.95.4-2.66,1.1C.4,1.81,0,2.76,0,3.76v16.47c0,1,.4,1.95,1.1,2.66.71.71,1.66,1.1,2.66,1.1h20.96c1,0,1.95-.4,2.66-1.1.71-.71,1.1-1.66,1.1-2.66V3.76c0-1-.4-1.95-1.1-2.66-.71-.71-1.66-1.1-2.66-1.1ZM3.76,2.37h20.96c.18,0,.37.04.54.11.17.07.32.17.45.3.13.13.23.28.3.45.07.17.11.35.11.54v1.47l-11.87,7.77L2.31,5.15v-1.38c0-.19.03-.38.11-.55.07-.17.18-.33.32-.46.14-.13.3-.24.47-.3.18-.07.36-.1.55-.09h0Zm20.96,19.28H3.76c-.37,0-.73-.15-.99-.41-.26-.26-.41-.62-.41-.99V7.96l11.29,7.44c.19.13.42.2.65.2s.46-.07.65-.2l11.17-7.35v12.18c0,.18-.04.37-.11.54-.07.17-.17.32-.3.45-.13.13-.28.23-.45.3-.17.07-.35.11-.54.11h0Z"/></svg>