<?xml version="1.0" encoding="UTF-8"?><svg id="Layer_1" xmlns="http://www.w3.org/2000/svg" viewBox="0 0 23.28 24"><defs><style>.cls-1{fill:#fff;stroke-width:0px;}</style></defs><path class="cls-1" d="m11.67,5.59c-1.65-.05-3.23.57-4.44,1.75-.62.6-1.1,1.32-1.44,2.12-.33.79-.51,1.65-.51,2.51,0,1.69.67,3.31,1.86,4.51,1.19,1.2,2.81,1.87,4.49,1.87.83,0,1.66-.16,2.43-.48.77-.32,1.46-.79,2.05-1.39,1.18-1.2,1.85-2.8,1.88-4.48.04-1.78-.51-3.32-1.58-4.46-1.13-1.21-2.77-1.88-4.75-1.94Zm4.18,6.35c-.05,2.38-1.9,4.25-4.22,4.25-1.12,0-2.19-.45-2.98-1.24-.79-.79-1.23-1.87-1.24-2.99,0-.58.12-1.14.34-1.67.22-.53.55-1.01.96-1.41.74-.73,1.73-1.14,2.77-1.14h.12c1.4.04,2.52.48,3.25,1.26.68.73,1.02,1.75,1,2.95Zm3.78-6.53c0,.29-.09.58-.25.83-.16.24-.39.43-.67.55-.27.11-.57.14-.86.08-.29-.06-.55-.2-.76-.41-.21-.21-.35-.47-.41-.76-.06-.29-.03-.59.08-.86.11-.27.3-.5.55-.67.24-.16.53-.25.82-.25.19,0,.39.04.57.11.18.07.34.18.48.32.14.14.25.3.32.48.07.18.11.37.11.57Zm-3.19-5.41H6.83C3.07,0,0,3.08,0,6.86v10.29c0,3.78,3.06,6.86,6.83,6.86h9.61c3.77,0,6.84-3.08,6.84-6.86V6.86c0-3.78-3.07-6.86-6.84-6.86Zm5.08,17.15c0,1.35-.54,2.65-1.49,3.6-.95.96-2.24,1.49-3.59,1.49H6.83c-1.35,0-2.64-.54-3.59-1.49-.95-.96-1.49-2.25-1.49-3.6V6.86c0-1.35.54-2.65,1.49-3.6.95-.96,2.24-1.49,3.59-1.5h9.61c1.35,0,2.64.54,3.59,1.5.95.96,1.49,2.25,1.49,3.6v10.29Z"/></svg>