<?xml version="1.0" encoding="UTF-8"?><svg id="Layer_1" xmlns="http://www.w3.org/2000/svg" viewBox="0 0 29.54 24"><defs><style>.cls-1{fill:#fff;stroke-width:0px;}</style></defs><path class="cls-1" d="m9.29,24c2.27.02,4.52-.42,6.62-1.28,2.1-.86,4.01-2.13,5.61-3.73s2.87-3.51,3.73-5.61,1.3-4.35,1.28-6.62c0-.27,0-.52-.02-.78,1.19-.86,2.21-1.92,3.02-3.14-1.11.49-2.28.81-3.48.95,1.27-.76,2.21-1.95,2.67-3.36-1.19.71-2.49,1.21-3.85,1.48-.91-.97-2.12-1.61-3.44-1.83-1.32-.22-2.67,0-3.84.64-1.18.63-2.11,1.63-2.66,2.84-.55,1.21-.69,2.58-.39,3.88-2.41-.12-4.77-.75-6.92-1.84C5.48,4.51,3.58,2.98,2.06,1.1c-.77,1.33-1.01,2.91-.66,4.42.35,1.5,1.26,2.82,2.54,3.67-.96-.03-1.9-.29-2.74-.76v.08c0,1.4.48,2.76,1.37,3.84.89,1.08,2.12,1.83,3.49,2.1-.89.24-1.83.28-2.74.1.39,1.2,1.14,2.26,2.16,3.01,1.02.75,2.24,1.17,3.51,1.2-2.15,1.68-4.8,2.6-7.53,2.59-.49,0-.97-.03-1.46-.09,2.77,1.78,6,2.73,9.29,2.72"/></svg>